<?xml version="1.0" encoding="UTF-8"?>
<svg width="288px" height="288px" viewBox="0 0 288 288" version="1.1" xmlns="http://www.w3.org/2000/svg" xmlns:xlink="http://www.w3.org/1999/xlink">
    <!-- Generator: Sketch 57.1 (83088) - https://sketch.com -->
    <title>ICONS / Forecast / Color / 11 - Fog LK</title>
    <desc>Created with Sketch.</desc>
    <g id="ICONS-/-Forecast-/-Color-/-11---Fog-LK" stroke="none" stroke-width="1" fill="none" fill-rule="evenodd">
        <g id="Fog" transform="translate(1.000000, 53.000000)" stroke="#BABABA" stroke-width="10.2142857">
            <path d="M260.770714,106.999643 C268.511257,88.8619578 266.623815,68.0490958 255.746703,51.5997777 C244.869592,35.1504596 226.457467,25.2645437 206.737143,25.2853571 L196.880357,25.2853571 C178.114729,3.19195047 147.866686,-5.38507051 120.29715,3.56971172 C92.7276143,12.5244939 73.2928474,37.2388465 71.0914286,66.1425 L58.7832143,66.1425 C48.6156297,66.1289432 38.8598409,70.1585009 31.6654782,77.3432838 C24.4711155,84.5280668 20.4285714,94.2784778 20.4285714,104.446071 C20.4285714,105.314286 20.4285714,106.131429 20.4285714,106.999643 L260.770714,106.999643 Z" id="Path"></path>
            <path d="M0,142.749643 L285.948929,142.749643" id="Path"></path>
            <path d="M0,106.999643 L285.948929,106.999643" id="Path"></path>
            <path d="M0,178.550714 L285.948929,178.550714" id="Path"></path>
        </g>
    </g>
</svg>