<?xml version="1.0" encoding="UTF-8"?>
<svg width="288px" height="288px" viewBox="0 0 288 288" version="1.1" xmlns="http://www.w3.org/2000/svg" xmlns:xlink="http://www.w3.org/1999/xlink">
    <!-- Generator: Sketch 57.1 (83088) - https://sketch.com -->
    <title>ICONS / Forecast / Color / 14 - Partly Sunny with Showers LK</title>
    <desc>Created with Sketch.</desc>
    <g id="ICONS-/-Forecast-/-Color-/-14---Partly-Sunny-with-Showers-LK" stroke="none" stroke-width="1" fill="none" fill-rule="evenodd">
        <g id="Partly-Sunny-w--Showers" transform="translate(2.000000, 2.000000)" stroke-width="9.66101695">
            <path d="M125.59322,43.4745763 L125.59322,0" id="Path" stroke="#FF8700"></path>
            <path d="M67.5788136,67.5305085 L36.8567797,36.8084746" id="Path" stroke="#FF8700"></path>
            <path d="M43.5711864,125.544915 L0.0966101695,125.544915" id="Path" stroke="#FF8700"></path>
            <path d="M67.6271186,183.559322 L36.8567797,214.329661" id="Path" stroke="#FF8700"></path>
            <path d="M183.607627,67.4822034 L214.377966,36.7601695" id="Path" stroke="#FF8700"></path>
            <path d="M189.452542,103.372881 C179.41428,74.2874312 151.007346,55.6445638 120.329331,58.0087855 C89.6513167,60.3730073 64.4363003,83.1482862 58.9730822,113.428368 C53.509864,143.708451 69.1757484,173.859577 97.0932203,186.795763" id="Path" stroke="#FF8700"></path>
            <path d="M135.688983,264.663559 L157.039831,228.048305" id="Path" stroke="#288ADB"></path>
            <path d="M206.455932,264.663559 L227.855085,228.048305" id="Path" stroke="#288ADB"></path>
            <path d="M160.759322,283.116102 L192.882203,228.048305" id="Path" stroke="#288ADB"></path>
            <path d="M280.169519,166.314407 C280.182312,154.647752 275.556736,143.454544 267.311692,135.200439 C259.066647,126.946335 247.878526,122.308468 236.211864,122.308475 L228.772881,122.308475 C214.753962,105.657953 192.041583,99.1662763 171.340896,105.893204 C150.64021,112.620131 136.082629,131.223112 134.529661,152.933898 L125.30339,152.933898 C109.456562,152.933898 96.6101695,165.780291 96.6101695,181.627119 C96.6101695,197.473947 109.456562,210.320339 125.30339,210.320339 L236.405085,210.320339 C260.62558,210.213889 280.196342,190.535121 280.169519,166.314407 L280.169519,166.314407 Z" id="Path" stroke="#BABABA"></path>
        </g>
    </g>
</svg>