<?xml version="1.0" encoding="UTF-8"?>
<svg width="288px" height="288px" viewBox="0 0 288 288" version="1.1" xmlns="http://www.w3.org/2000/svg" xmlns:xlink="http://www.w3.org/1999/xlink">
    <!-- Generator: Sketch 57.1 (83088) - https://sketch.com -->
    <title>ICONS / Forecast / Color / 16 - Mostly Cloudy with Thundershowers LK</title>
    <desc>Created with Sketch.</desc>
    <g id="ICONS-/-Forecast-/-Color-/-16---Mostly-Cloudy-with-Thundershowers-LK" stroke="none" stroke-width="1" fill="none" fill-rule="evenodd">
        <g id="Mostly-cloudy-w-Thunderstorms" transform="translate(14.000000, 6.000000)" stroke-width="9.63636364">
            <path d="M86.7272727,0 L86.7272727,33.7272727" id="Path" stroke="#FF8700"></path>
            <path d="M33.7272727,86.39 L0,86.39" id="Path" stroke="#FF8700"></path>
            <path d="M49.1936364,48.8563636 L25.3436364,25.0063636" id="Path" stroke="#FF8700"></path>
            <path d="M114.528182,59.5527273 C104.671417,49.397212 90.0420579,45.4599711 76.4195874,49.2964533 C62.7971169,53.1329354 52.3725858,64.1260773 49.2643155,77.9329218 C46.1560453,91.7397663 50.863973,106.139608 61.5281818,115.443636" id="Path" stroke="#FF8700"></path>
            <polyline id="Path" stroke="#FF8700" points="136.980909 276.900909 173.791818 213.879091 131.97 213.879091 168.780909 150.760909"></polyline>
            <path d="M168.299091,187.571818 L204.869091,187.571818 C235.470687,187.571818 260.278182,162.764323 260.278182,132.162727 C260.278182,101.561131 235.470687,76.7536364 204.869091,76.7536364 L195.377273,76.7536364 C177.6734,55.9102699 149.136784,47.8185349 123.127127,56.2666575 C97.1174696,64.71478 78.7823176,88.0307999 76.7054545,115.299091 L65.0936364,115.299091 C45.1360741,115.299091 28.9572735,131.477892 28.9572735,151.435455 C28.9572735,171.393017 45.1360741,187.571818 65.0936364,187.571818 L125.802727,187.571818" id="Path" stroke="#BABABA"></path>
        </g>
    </g>
</svg>