<?xml version="1.0" encoding="UTF-8"?>
<svg width="288px" height="288px" viewBox="0 0 288 288" version="1.1" xmlns="http://www.w3.org/2000/svg" xmlns:xlink="http://www.w3.org/1999/xlink">
    <!-- Generator: Sketch 57.1 (83088) - https://sketch.com -->
    <title>ICONS / Forecast / Color / 17 - Partly Cloudy with Thundershowers LK</title>
    <desc>Created with Sketch.</desc>
    <g id="ICONS-/-Forecast-/-Color-/-17---Partly-Cloudy-with-Thundershowers-LK" stroke="none" stroke-width="1" fill="none" fill-rule="evenodd">
        <g id="Partly-sunny-w--Thunderstorms" transform="translate(0.000000, 2.000000)" stroke-width="9.72881356">
            <path d="M126.474576,43.779661 L126.474576,0" id="Path" stroke="#FF8700"></path>
            <path d="M68.0530508,68.0044068 L37.1154237,37.0667797" id="Path" stroke="#FF8700"></path>
            <path d="M43.8769492,126.425932 L0.0972881356,126.425932" id="Path" stroke="#FF8700"></path>
            <path d="M68.1016949,184.847458 L37.1154237,215.833729" id="Path" stroke="#FF8700"></path>
            <path d="M184.896102,67.9557627 L215.882373,37.0181356" id="Path" stroke="#FF8700"></path>
            <path d="M190.782034,104.098305 C180.673327,74.8087465 152.067047,56.0350519 121.173748,58.4158647 C90.2804488,60.7966775 64.8884849,83.7317829 59.3869284,114.224357 C53.8853718,144.716931 69.6611923,175.079645 97.7745763,188.10661" id="Path" stroke="#FF8700"></path>
            <polyline id="Path" stroke="#FF8700" points="183.777288 283.011186 213.158305 232.664576 179.739831 232.664576 209.169492 182.269322"></polyline>
            <path d="M208.731695,211.698983 L237.918136,211.698983 C262.365628,211.698983 282.184236,191.880374 282.184236,167.432881 C282.184236,142.985389 262.365628,123.16678 237.918136,123.16678 L230.378305,123.16678 C216.402895,106.156207 193.435026,99.441469 172.497448,106.245107 C151.55987,113.048745 136.926289,131.982024 135.619661,153.958475 L126.474576,153.958475 C115.87755,153.523399 105.893879,158.928902 100.465771,168.040537 C95.0376638,177.152173 95.0376638,188.505285 100.465771,197.61692 C105.893879,206.728555 115.87755,212.134059 126.474576,211.698983 L175.118644,211.698983" id="Path" stroke="#BABABA"></path>
        </g>
    </g>
</svg>