<?xml version="1.0" encoding="UTF-8"?>
<svg width="288px" height="288px" viewBox="0 0 288 288" version="1.1" xmlns="http://www.w3.org/2000/svg" xmlns:xlink="http://www.w3.org/1999/xlink">
    <!-- Generator: Sketch 57.1 (83088) - https://sketch.com -->
    <title>ICONS / Forecast / Color / 02 - Mostly Sunny LK</title>
    <desc>Created with Sketch.</desc>
    <g id="ICONS-/-Forecast-/-Color-/-02---Mostly-Sunny-LK" stroke="none" stroke-width="1" fill="none" fill-rule="evenodd">
        <g id="Mostly-Sunny" transform="translate(1.000000, 2.000000)" stroke-width="9.49894737">
            <path d="M142.484211,0 L142.484211,47.4947368" id="Path" stroke="#FF8700"></path>
            <path d="M142.484211,237.473684 L142.484211,284.968421" id="Path" stroke="#FF8700"></path>
            <path d="M0,142.484211 L47.4947368,142.484211" id="Path" stroke="#FF8700"></path>
            <path d="M209.641768,75.3266526 L243.220547,41.7478737" id="Path" stroke="#FF8700"></path>
            <path d="M243.220547,243.220547 L209.641768,209.641768" id="Path" stroke="#FF8700"></path>
            <path d="M75.3266526,75.3266526 L41.7478737,41.7478737" id="Path" stroke="#FF8700"></path>
            <path d="M75.3266526,209.641768 L41.7478737,243.220547" id="Path" stroke="#FF8700"></path>
            <path d="M210.876632,109.570358 C195.931808,78.577384 162.027004,61.493433 128.225224,67.9239702 C94.4234432,74.3545075 69.1602503,102.69473 66.6398959,137.010324 C64.1195416,171.325918 84.9710048,203.053092 117.470533,214.353217 C149.970062,225.653342 186.007081,213.706361 205.319747,185.229474" id="Path" stroke="#FF8700"></path>
            <path d="M249.299874,123.486316 L245.167832,123.486316 C235.172972,111.113269 218.529083,106.275139 203.458849,111.362138 C188.388616,116.449137 178.081789,130.384555 177.630316,146.283789 L171.550989,146.283789 C161.157034,146.796954 152.993227,155.373763 152.993227,165.780379 C152.993227,176.186995 161.157034,184.763804 171.550989,185.276968 L249.299874,185.276968 C260.737854,185.911677 271.589345,180.170338 277.499464,170.357043 C283.409583,160.543749 283.409583,148.26703 277.499464,138.453736 C271.589345,128.640441 260.737854,122.899102 249.299874,123.533811 L249.299874,123.486316 Z" id="Path" stroke="#BABABA"></path>
        </g>
    </g>
</svg>