<?xml version="1.0" encoding="UTF-8"?>
<svg width="288px" height="288px" viewBox="0 0 288 288" version="1.1" xmlns="http://www.w3.org/2000/svg" xmlns:xlink="http://www.w3.org/1999/xlink">
    <!-- Generator: Sketch 57.1 (83088) - https://sketch.com -->
    <title>ICONS / Forecast / Color / 21  - Partly Sunny w Flurries LK</title>
    <desc>Created with Sketch.</desc>
    <g id="ICONS-/-Forecast-/-Color-/-21----Partly-Sunny-w-Flurries-LK" stroke="none" stroke-width="1" fill="none" fill-rule="evenodd">
        <g id="Partly-sunny-w--Flurries" transform="translate(5.000000, 0.000000)" stroke-width="9.59554214">
            <path d="M124.742048,43.1799396 L124.742048,0" id="Path" stroke="#FF8700"></path>
            <path d="M67.1208173,67.0728396 L36.6069933,36.5590156" id="Path" stroke="#FF8700"></path>
            <path d="M43.2758951,124.69407 L0.0959554214,124.69407" id="Path" stroke="#FF8700"></path>
            <path d="M67.168795,182.315301 L36.6069933,212.877102" id="Path" stroke="#FF8700"></path>
            <path d="M182.363278,67.0248619 L212.92508,36.5110378" id="Path" stroke="#FF8700"></path>
            <path d="M188.168581,102.672301 C178.19835,73.7839691 149.983937,55.2674485 119.513833,57.6156474 C89.0437303,59.9638463 63.9996015,82.5847722 58.5734088,112.65964 C53.1472161,142.734507 68.7069294,172.681293 96.4351985,185.529807" id="Path" stroke="#FF8700"></path>
            <path d="M278.270749,165.187258 C278.283456,153.599671 273.689228,142.482321 265.500062,134.284156 C257.310896,126.085992 246.1986,121.479557 234.611005,121.479564 L227.222438,121.479564 C213.298528,104.941886 190.740075,98.494205 170.179682,105.175542 C149.619289,111.85688 135.160368,130.333784 133.617924,151.897432 L124.454182,151.897432 C108.714751,151.897432 95.9554214,164.656762 95.9554214,180.396192 C95.9554214,196.135623 108.714751,208.894952 124.454182,208.894952 L234.802916,208.894952 C258.859264,208.789224 278.29739,189.243823 278.270749,165.187258 L278.270749,165.187258 Z" id="Path" stroke="#BABABA"></path>
            <path d="M278.270749,165.187258 C278.283456,153.599671 273.689228,142.482321 265.500062,134.284156 C257.310896,126.085992 246.1986,121.479557 234.611005,121.479564 L227.222438,121.479564 C213.298528,104.941886 190.740075,98.494205 170.179682,105.175542 C149.619289,111.85688 135.160368,130.333784 133.617924,151.897432 L124.454182,151.897432 C108.714751,151.897432 95.9554214,164.656762 95.9554214,180.396192 C95.9554214,196.135623 108.714751,208.894952 124.454182,208.894952 L234.802916,208.894952 C258.859264,208.789224 278.29739,189.243823 278.270749,165.187258 L278.270749,165.187258 Z" id="Path" stroke="#BABABA"></path>
            <path d="M187.113072,225.49524 L187.113072,287.866264" id="Path" stroke="#288ADB"></path>
            <path d="M160.101621,241.087996 L214.124523,272.273508" id="Path" stroke="#288ADB"></path>
            <path d="M160.101621,272.273508 L214.124523,241.087996" id="Path" stroke="#288ADB"></path>
        </g>
    </g>
</svg>