<?xml version="1.0" encoding="UTF-8"?>
<svg width="288px" height="288px" viewBox="0 0 288 288" version="1.1" xmlns="http://www.w3.org/2000/svg" xmlns:xlink="http://www.w3.org/1999/xlink">
    <!-- Generator: Sketch 57.1 (83088) - https://sketch.com -->
    <title>ICONS / Forecast / Color / 22 - Snow LK</title>
    <desc>Created with Sketch.</desc>
    <g id="ICONS-/-Forecast-/-Color-/-22---Snow-LK" stroke="none" stroke-width="1" fill="none" fill-rule="evenodd">
        <g id="Snow" transform="translate(26.000000, 26.000000)" stroke-width="9.79591837">
            <path d="M205.812245,167.526531 L205.812245,226.204082" id="Path" stroke="#288ADB"></path>
            <path d="M180.391837,182.220408 L231.183673,211.510204" id="Path" stroke="#288ADB"></path>
            <path d="M180.391837,211.510204 L231.183673,182.220408" id="Path" stroke="#288ADB"></path>
            <path d="M34.2367347,167.526531 L34.2367347,226.204082" id="Path" stroke="#288ADB"></path>
            <path d="M8.86530612,182.220408 L59.6571429,211.510204" id="Path" stroke="#288ADB"></path>
            <path d="M8.86530612,211.510204 L59.6571429,182.220408" id="Path" stroke="#288ADB"></path>
            <path d="M178.873469,137.697959 C209.981753,137.697959 235.2,112.479712 235.2,81.3714286 C235.2,50.2631447 209.981753,25.044898 178.873469,25.044898 L169.22449,25.044898 C151.227484,3.85641604 122.218371,-4.36929839 95.7780574,4.21870454 C69.3377434,12.8067075 50.699006,36.5087839 48.5877551,64.2285714 L36.7836735,64.2285714 C16.4956626,64.2285719 0.048980366,80.6752544 0.048980366,100.963265 C0.048980366,121.251276 16.4956626,137.697959 36.7836735,137.697959 L178.873469,137.697959 Z" id="Path" stroke="#BABABA"></path>
            <path d="M120.04898,157.632653 L120.04898,236" id="Path" stroke="#288ADB"></path>
            <path d="M86.1061224,177.22449 L153.942857,216.408163" id="Path" stroke="#288ADB"></path>
            <path d="M86.1061224,216.408163 L153.942857,177.22449" id="Path" stroke="#288ADB"></path>
        </g>
    </g>
</svg>