<?xml version="1.0" encoding="UTF-8"?>
<svg width="288px" height="288px" viewBox="0 0 288 288" version="1.1" xmlns="http://www.w3.org/2000/svg" xmlns:xlink="http://www.w3.org/1999/xlink">
    <!-- Generator: Sketch 57.1 (83088) - https://sketch.com -->
    <title>ICONS / Forecast / Color / 32 - Windy LK</title>
    <desc>Created with Sketch.</desc>
    <g id="ICONS-/-Forecast-/-Color-/-32---Windy-LK" stroke="none" stroke-width="1" fill="none" fill-rule="evenodd">
        <g id="Windy" transform="translate(0.000000, 54.000000)" stroke="#BABABA" stroke-width="9.59322034">
            <path d="M211.050847,72.3821798 C211.050847,52.51397 227.157214,36.4076036 247.025424,36.4076036 C266.893634,36.4076036 283,52.51397 283,72.3821798 C283,92.2503897 266.893634,108.356756 247.025424,108.356756 L71.9491525,108.356756" id="Path"></path>
            <path d="M100.728814,36.4076036 C100.728826,21.8528835 109.49895,8.73222325 122.947617,3.16686456 C136.396285,-2.39849412 151.873348,0.688139567 162.158221,10.9867443 C172.443094,21.285349 175.509075,36.7665164 169.925778,50.2077466 C164.342481,63.6489767 151.210131,72.4015861 136.655424,72.3822121 L0,72.3822121" id="Path"></path>
            <path d="M215.84749,180.305909 C215.86019,170.769271 212.080698,161.61887 205.341771,154.870946 C198.602844,148.123022 189.457493,144.331332 179.920847,144.331332 L0,144.331332" id="Path"></path>
        </g>
    </g>
</svg>