<?xml version="1.0" encoding="UTF-8"?>
<svg width="288px" height="288px" viewBox="0 0 288 288" version="1.1" xmlns="http://www.w3.org/2000/svg" xmlns:xlink="http://www.w3.org/1999/xlink">
    <!-- Generator: Sketch 57.1 (83088) - https://sketch.com -->
    <title>ICONS / Forecast / Color / 34 - Mostly Clear Night LK</title>
    <desc>Created with Sketch.</desc>
    <g id="ICONS-/-Forecast-/-Color-/-34---Mostly-Clear-Night-LK" stroke="none" stroke-width="1" fill="none" fill-rule="evenodd">
        <g id="Mostly-Clear" transform="translate(29.000000, 34.000000)" stroke-width="9.36">
            <path d="M108.342,107.1204 C92.3106293,72.1699692 96.2775599,31.3034367 118.7316,0.0888 C64.6692142,8.2623401 24.6470785,54.6435043 24.4764,109.32 C24.4961599,114.21859 24.8244096,119.111074 25.4592,123.9684" id="Path" stroke="#686763" stroke-linejoin="bevel"></path>
            <path d="M39.7332,165.48 C59.5840007,199.029581 95.5177873,219.77284 134.498031,220.184266 C173.478275,220.595692 209.841887,200.615514 230.3964,167.4924 C192.336005,176.065266 152.602147,163.559106 126.3132,134.7324" id="Path" stroke="#686763" stroke-linejoin="bevel"></path>
            <path d="M95.8932,104.64 L91.8216,104.64 C81.9729419,92.4479421 65.572514,87.6805829 50.7227226,92.6931707 C35.8729312,97.7057585 25.7168693,111.437334 25.272,127.104 L19.2816,127.104 C9.03968373,127.609658 0.995294112,136.061009 0.995294112,146.3154 C0.995294112,156.569791 9.03968373,165.021142 19.2816,165.5268 L95.8932,165.5268 C107.16387,166.152225 117.856628,160.494867 123.680296,150.825118 C129.503964,141.15537 129.503964,129.05823 123.680296,119.388482 C117.856628,109.718733 107.16387,104.061375 95.8932,104.6868 L95.8932,104.64 Z" id="Path" stroke="#BABABA"></path>
        </g>
    </g>
</svg>