<?xml version="1.0" encoding="UTF-8"?>
<svg width="288px" height="288px" viewBox="0 0 288 288" version="1.1" xmlns="http://www.w3.org/2000/svg" xmlns:xlink="http://www.w3.org/1999/xlink">
    <!-- Generator: Sketch 57.1 (83088) - https://sketch.com -->
    <title>ICONS / Forecast / Color / 35 - Partly Cloudy Night LK</title>
    <desc>Created with Sketch.</desc>
    <g id="ICONS-/-Forecast-/-Color-/-35---Partly-Cloudy-Night-LK" stroke="none" stroke-width="1" fill="none" fill-rule="evenodd">
        <g id="Partly-Cloudy" transform="translate(31.000000, 40.000000)" stroke-width="8.79245283">
            <path d="M105.323019,81.88 C98.927378,53.7845686 104.898852,24.295413 121.720943,0.901509434 C93.8335893,5.05572859 68.8344411,20.3716029 52.4675719,43.3299924 C36.1007027,66.2883819 29.7733787,94.9152641 34.939434,122.633019" id="Path" stroke="#686763" stroke-linejoin="bevel"></path>
            <path d="M62.9433962,176.003208 C85.4363212,198.941314 117.213562,210.285494 149.147571,206.777299 C181.081581,203.269104 209.638181,185.29679 226.614906,158.022642 C205.896143,162.645336 184.253451,160.725295 164.672075,152.527358" id="Path" stroke="#686763" stroke-linejoin="bevel"></path>
            <path d="M128.095472,95.5962264 L122.688113,95.5962264 C109.709175,79.4340074 88.0224879,73.0902682 68.3794329,79.7099777 C48.7363779,86.3296872 35.3128078,104.505583 34.7635849,125.226792 L26.8943396,125.226792 C17.5719989,124.838782 8.78684643,129.591095 4.01005134,137.606007 C-0.766743744,145.620919 -0.766743744,155.609081 4.01005134,163.623993 C8.78684643,171.638905 17.5719989,176.391218 26.8943396,176.003208 L128.007547,176.003208 C142.687915,176.488725 156.465772,168.933942 163.949703,156.295125 C171.433633,143.656308 171.433633,127.943126 163.949703,115.304309 C156.465772,102.665492 142.687915,95.1107094 128.007547,95.5962264 L128.095472,95.5962264 Z" id="Path" stroke="#BABABA"></path>
        </g>
    </g>
</svg>