<?xml version="1.0" encoding="UTF-8"?>
<svg width="286px" height="288px" viewBox="0 0 286 288" version="1.1" xmlns="http://www.w3.org/2000/svg" xmlns:xlink="http://www.w3.org/1999/xlink">
    <!-- Generator: Sketch 57.1 (83088) - https://sketch.com -->
    <title>ICONS / Forecast / Color / 36 - Intermittent Clouds Night LK</title>
    <desc>Created with Sketch.</desc>
    <g id="ICONS-/-Forecast-/-Color-/-36---Intermittent-Clouds-Night-LK" stroke="none" stroke-width="1" fill="none" fill-rule="evenodd">
        <g id="Intermittent-Clouds_Night" transform="translate(6.000000, 17.000000)" stroke-width="10.7642857">
            <path d="M183.565321,56.2678571 L188.516893,56.2678571 C188.749597,44.9162754 196.081814,34.9320088 206.843442,31.3126272 C217.60507,27.6932456 229.480523,31.2175338 236.525607,40.1214286 L245.621429,40.1214286 C257.51133,40.1214286 267.15,49.7600983 267.15,61.65 L267.15,61.65 C267.15,73.5399017 257.51133,83.1785714 245.621429,83.1785714 L183.565321,83.1785714 C176.134133,83.1785714 170.109964,77.1544028 170.109964,69.7232143 C170.109964,62.2920257 176.134133,56.2678571 183.565321,56.2678571 Z" id="Path" stroke="#BABABA"></path>
            <path d="M117.849357,244.642857 C175.524901,267.462567 241.264284,245.700564 273.9315,192.974286 C223.858287,204.457169 171.896448,183.819035 143.347469,141.109093 C114.79849,98.3991518 115.596173,42.4945097 145.352107,0.6165 C107.858529,6.18531119 74.8085028,28.2014072 55.2239836,60.6548607 C35.6394645,93.1083142 31.5654281,132.610402 44.114,168.377893" id="Path" stroke="#686763" stroke-linejoin="bevel"></path>
            <path d="M33.1344286,174.675 L37.8707143,174.675 C49.1969717,160.653761 68.0579645,155.171153 85.1356778,160.935782 C102.213391,166.700411 113.893172,182.492141 114.404786,200.509286 L121.293929,200.509286 C133.072445,201.090808 142.323739,210.810119 142.323739,222.602982 C142.323739,234.395845 133.072445,244.115156 121.293929,244.696679 L33.1344286,244.696679 C14.5664138,243.666314 0.0379840012,228.309331 0.0379840012,209.71275 C0.0379840012,191.116169 14.5664138,175.759186 33.1344286,174.728821 L33.1344286,174.675 Z" id="Path" stroke="#BABABA"></path>
        </g>
    </g>
</svg>