<?xml version="1.0" encoding="UTF-8"?>
<svg width="288px" height="288px" viewBox="0 0 288 288" version="1.1" xmlns="http://www.w3.org/2000/svg" xmlns:xlink="http://www.w3.org/1999/xlink">
    <!-- Generator: Sketch 57.1 (83088) - https://sketch.com -->
    <title>ICONS / Forecast / Color / 38 - Mostly Cloudy Night LK</title>
    <desc>Created with Sketch.</desc>
    <g id="ICONS-/-Forecast-/-Color-/-38---Mostly-Cloudy-Night-LK" stroke="none" stroke-width="1" fill="none" fill-rule="evenodd">
        <g id="Mostly-Cloudy_1" transform="translate(16.000000, 50.000000)" stroke-width="9.62962963">
            <path d="M219.937037,124.607407 C234.928108,120.024352 247.743884,110.151584 256,96.8259259 C230.824394,102.498151 204.756096,92.0751255 190.431268,70.6092322 C176.10644,49.1433389 176.485691,21.0710784 191.385185,0 C162.803259,4.31104376 140.606804,27.1574401 137.122222,55.8518519" id="Path" stroke="#686763" stroke-linejoin="bevel"></path>
            <path d="M55.9925926,187.440741 C25.4123814,187.374262 0.676113873,162.530211 0.74245891,131.95 C0.809071312,101.369789 25.6531222,76.6335213 56.2333333,76.7 L65.5259259,76.7 C83.2242942,55.905785 111.719417,47.8432216 137.689062,56.281774 C163.658706,64.7203263 181.971873,87.9927318 184.066667,115.218519 L195.718519,115.218519 C215.662134,115.218519 231.82963,131.386014 231.82963,151.32963 C231.82963,171.273246 215.662134,187.440741 195.718519,187.440741 L55.9925926,187.440741 Z" id="Path" stroke="#BABABA"></path>
        </g>
    </g>
</svg>