<?xml version="1.0" encoding="UTF-8"?>
<svg width="288px" height="288px" viewBox="0 0 288 288" version="1.1" xmlns="http://www.w3.org/2000/svg" xmlns:xlink="http://www.w3.org/1999/xlink">
    <!-- Generator: Sketch 57.1 (83088) - https://sketch.com -->
    <title>ICONS / Forecast / Color / 39 Partly Cloudy with Showers Night LK</title>
    <desc>Created with Sketch.</desc>
    <g id="ICONS-/-Forecast-/-Color-/-39-Partly-Cloudy-with-Showers-Night-LK" stroke="none" stroke-width="1" fill="none" fill-rule="evenodd">
        <g id="Partly-cloudy-w--showers" transform="translate(8.000000, 10.000000)" stroke-width="9.78947368">
            <path d="M23.0889474,249.470526 L44.6257895,212.564211" id="Path" stroke="#288ADB"></path>
            <path d="M95.9715789,249.470526 L115.942105,215.305263" id="Path" stroke="#288ADB"></path>
            <path d="M48.8352632,268.119474 L81.2873684,212.564211" id="Path" stroke="#288ADB"></path>
            <path d="M87.5036842,192.789474 C112.205656,219.540717 147.986989,233.215671 184.234216,229.758065 C220.481442,226.30046 253.032118,206.107351 272.231053,175.168421 C239.294291,182.487107 204.808392,174.793685 178.105263,154.17" id="Path" stroke="#686763" stroke-linejoin="bevel"></path>
            <path d="M143.156842,108.991579 C128.040934,73.070923 132.694589,31.8740213 155.442632,0.230526316 C103.792659,7.9642396 63.7016625,49.2980572 57.5478947,101.16" id="Path" stroke="#686763" stroke-linejoin="bevel"></path>
            <path d="M136.059474,192.789474 C158.816051,192.014494 176.863341,173.342138 176.863341,150.572368 C176.863341,127.802599 158.816051,109.130243 136.059474,108.355263 L128.815263,108.355263 C115.353479,92.3983902 93.570429,86.1808897 73.7139719,92.6277913 C53.8575148,99.074693 39.8813292,116.902335 38.3605263,137.723684 L29.5010526,137.723684 C19.3875762,137.297168 9.85434614,142.449629 4.67045548,151.143972 C-0.513435173,159.838315 -0.513435173,170.674843 4.67045548,179.369186 C9.85434614,188.063529 19.3875762,193.21599 29.5010526,192.789474 L136.059474,192.789474 Z" id="Path" stroke="#BABABA"></path>
        </g>
    </g>
</svg>