<?xml version="1.0" encoding="UTF-8"?>
<svg width="288px" height="288px" viewBox="0 0 288 288" version="1.1" xmlns="http://www.w3.org/2000/svg" xmlns:xlink="http://www.w3.org/1999/xlink">
    <!-- Generator: Sketch 57.1 (83088) - https://sketch.com -->
    <title>ICONS / Forecast / Color / 04 - Intermitent Clouds LK</title>
    <desc>Created with Sketch.</desc>
    <g id="ICONS-/-Forecast-/-Color-/-04---Intermitent-Clouds-LK" stroke="none" stroke-width="1" fill="none" fill-rule="evenodd">
        <g id="Intermittent-Clouds" transform="translate(0.000000, 1.000000)" stroke-width="9.53263158">
            <path d="M142.989474,0 L142.989474,47.6631579" id="Path" stroke="#FF8700"></path>
            <path d="M142.989474,238.315789 L142.989474,285.978947" id="Path" stroke="#FF8700"></path>
            <path d="M0,142.989474 L47.6631579,142.989474" id="Path" stroke="#FF8700"></path>
            <path d="M210.385179,75.5937684 L244.083032,41.8959158" id="Path" stroke="#FF8700"></path>
            <path d="M244.083032,244.083032 L210.385179,210.385179" id="Path" stroke="#FF8700"></path>
            <path d="M75.5937684,75.5937684 L41.8959158,41.8959158" id="Path" stroke="#FF8700"></path>
            <path d="M211.624421,109.958905 C196.626602,78.8560272 162.601568,61.7114948 128.679923,68.1648354 C94.7582781,74.6181759 69.4054994,103.058895 66.8762076,137.496176 C64.3469158,171.933456 85.2723204,203.773138 117.887095,215.113335 C150.501871,226.453531 186.666681,214.464185 206.047832,185.886316" id="Path" stroke="#FF8700"></path>
            <path d="M250.183916,123.924211 L246.037221,123.924211 C236.006919,111.507288 219.304009,106.652002 204.180335,111.757039 C189.05666,116.862077 178.713285,130.846911 178.260211,146.802526 L172.159326,146.802526 C161.728513,147.31751 153.535756,155.924734 153.535756,166.368253 C153.535756,176.811771 161.728513,185.418995 172.159326,185.933979 L250.183916,185.933979 C261.662457,186.570939 272.552427,180.80924 278.483504,170.961146 C284.414581,161.113053 284.414581,148.7928 278.483504,138.944706 C272.552427,129.096613 261.662457,123.334914 250.183916,123.971874 L250.183916,123.924211 Z" id="Path" stroke="#BABABA"></path>
            <path d="M78.6442105,233.549474 L74.2115368,233.549474 C74.2115368,220.387656 63.5417755,209.717895 50.3799579,209.717895 C42.9819613,209.762802 36.0389623,213.296135 31.6483368,219.250526 L23.8315789,219.250526 C13.3021249,219.250526 4.76631579,227.786335 4.76631579,238.315789 L4.76631579,238.315789 C4.76631579,248.845244 13.3021249,257.381053 23.8315789,257.381053 L78.6442105,257.381053 C85.2251193,257.381053 90.56,252.046172 90.56,245.465263 C90.56,238.884354 85.2251193,233.549474 78.6442105,233.549474 L78.6442105,233.549474 Z" id="Path" stroke="#BABABA"></path>
        </g>
    </g>
</svg>