<?xml version="1.0" encoding="UTF-8"?>
<svg width="288px" height="288px" viewBox="0 0 288 288" version="1.1" xmlns="http://www.w3.org/2000/svg" xmlns:xlink="http://www.w3.org/1999/xlink">
    <!-- Generator: Sketch 57.1 (83088) - https://sketch.com -->
    <title>ICONS / Forecast / Color / 41 - Partly Cloudy with Thundershowers Night LK</title>
    <desc>Created with Sketch.</desc>
    <g id="ICONS-/-Forecast-/-Color-/-41---Partly-Cloudy-with-Thundershowers-Night-LK" stroke="none" stroke-width="1" fill="none" fill-rule="evenodd">
        <g id="Partly-cloudy-w--Thunderstorms" transform="translate(7.000000, 10.000000)" stroke-width="9.8245614">
            <polyline id="Path" stroke="#FF8700" points="53.7368421 267.126316 85.1263158 213.336842 52.6070175 213.336842 81.3929825 164.017544"></polyline>
            <path d="M87.8280702,193.491228 C112.61858,220.338354 148.528161,234.062322 184.905306,230.592324 C221.282451,227.122326 253.949796,206.856839 273.217544,175.807018 C240.162729,183.151936 205.553225,175.430939 178.754386,154.733333" id="Path" stroke="#686763" stroke-linejoin="bevel"></path>
            <path d="M143.680702,109.392982 C128.510615,73.3435786 133.18095,31.9990178 156.010526,0.242105263 C104.175429,8.00353795 63.9407366,49.4855054 57.7649123,101.533333" id="Path" stroke="#686763" stroke-linejoin="bevel"></path>
            <path d="M80.5087719,193.491228 L136.508772,193.491228 C159.346914,192.713471 177.45889,173.974188 177.45889,151.122807 C177.45889,128.271426 159.346914,109.532143 136.508772,108.754386 L129.287719,108.754386 C115.777685,92.7403199 93.9165595,86.5005345 73.9889324,92.9705433 C54.0613052,99.4405521 40.0350257,117.332092 38.5087719,138.22807 L29.6175439,138.22807 C19.4678184,137.800025 9.90041907,142.970954 4.69794816,151.69646 C-0.504522754,160.421965 -0.504522754,171.297333 4.69794816,180.022839 C9.90041907,188.748344 19.4678184,193.919273 29.6175439,193.491228 L46.122807,193.491228" id="Path" stroke="#BABABA"></path>
        </g>
    </g>
</svg>