<?xml version="1.0" encoding="UTF-8"?>
<svg width="288px" height="288px" viewBox="0 0 288 288" version="1.1" xmlns="http://www.w3.org/2000/svg" xmlns:xlink="http://www.w3.org/1999/xlink">
    <!-- Generator: Sketch 57.1 (83088) - https://sketch.com -->
    <title>ICONS / Forecast / Color / 43 - Mostly Cloudy with Flurries Night LK</title>
    <desc>Created with Sketch.</desc>
    <g id="ICONS-/-Forecast-/-Color-/-43---Mostly-Cloudy-with-Flurries-Night-LK" stroke="none" stroke-width="1" fill="none" fill-rule="evenodd">
        <g id="Mostly-cloudy-w--Flurries_1" transform="translate(16.000000, 5.000000)" stroke-width="9.56526807">
            <path d="M218.482267,123.774569 C233.373143,119.222145 246.103261,109.415364 254.304196,96.1787704 C229.296856,101.813084 203.402791,91.4597229 189.173706,70.1373012 C174.944621,48.8148795 175.321337,20.9302456 190.121247,0 C161.730354,4.28223003 139.682253,26.9759279 136.220962,55.4785548" id="Path" stroke="#686763" stroke-linejoin="bevel"></path>
            <path d="M55.6335781,186.187943 C25.2577559,186.121908 0.686818168,161.443908 0.752719775,131.068086 C0.81888696,100.692264 25.4968876,76.1213257 55.8727098,76.1873601 L65.1031935,76.1873601 C82.6832712,55.5321274 110.987941,47.5234518 136.784012,55.9056034 C162.580084,64.287755 180.770851,87.4046147 182.851643,114.448432 L194.425618,114.448432 C214.235937,114.448432 230.295373,130.507869 230.295373,150.318188 C230.295373,170.128506 214.235937,186.187943 194.425618,186.187943 L55.6335781,186.187943 Z" id="Path" stroke="#BABABA"></path>
            <path d="M118.046952,205.653263 L118.046952,282.175408" id="Path" stroke="#288ADB"></path>
            <path d="M84.9032984,224.7838 L151.14278,263.044872" id="Path" stroke="#288ADB"></path>
            <path d="M84.9032984,263.044872 L151.14278,224.7838" id="Path" stroke="#288ADB"></path>
        </g>
    </g>
</svg>