<?xml version="1.0" encoding="UTF-8"?>
<svg width="288px" height="288px" viewBox="0 0 288 288" version="1.1" xmlns="http://www.w3.org/2000/svg" xmlns:xlink="http://www.w3.org/1999/xlink">
    <!-- Generator: Sketch 57.1 (83088) - https://sketch.com -->
    <title>ICONS / Forecast / Color / 44 - Mostly Cloudy with Snow Night LK</title>
    <desc>Created with Sketch.</desc>
    <g id="ICONS-/-Forecast-/-Color-/-44---Mostly-Cloudy-with-Snow-Night-LK" stroke="none" stroke-width="1" fill="none" fill-rule="evenodd">
        <g id="Mostly-cloudy-w--Snow_1" transform="translate(16.000000, 5.000000)" stroke-width="9.59584146">
            <path d="M219.165328,124.170188 C234.103799,119.603214 246.874607,109.765088 255.101754,96.4861858 C230.014484,102.138509 204.037654,91.7520549 189.763088,70.3614805 C175.488523,48.9709061 175.866443,20.9971448 190.713658,0 C162.23202,4.29591729 140.113447,27.0621508 136.641092,55.6558804" id="Path" stroke="#686763" stroke-linejoin="bevel"></path>
            <path d="M55.7961274,186.783054 C25.3232152,186.716808 0.673741543,161.95993 0.739853791,131.487018 C0.806232466,101.014105 25.5631112,76.3646317 56.0360234,76.4308772 L65.2960104,76.4308772 C82.9322792,55.7096243 111.327419,47.6753507 137.205942,56.0842941 C163.084465,64.4932374 181.333375,87.6839854 183.420819,114.814243 L195.031787,114.814243 C214.905425,114.814243 231.016192,130.92501 231.016192,150.798648 C231.016192,170.672287 214.905425,186.783054 195.031787,186.783054 L55.7961274,186.783054 Z" id="Path" stroke="#BABABA"></path>
            <path d="M202.420585,216.002391 L202.420585,273.481481" id="Path" stroke="#288ADB"></path>
            <path d="M177.519376,230.396153 L227.273814,259.087719" id="Path" stroke="#288ADB"></path>
            <path d="M177.519376,259.087719 L227.273814,230.396153" id="Path" stroke="#288ADB"></path>
            <path d="M34.3494217,216.002391 L34.3494217,273.481481" id="Path" stroke="#288ADB"></path>
            <path d="M9.49619233,230.396153 L59.2506303,259.087719" id="Path" stroke="#288ADB"></path>
            <path d="M9.49619233,259.087719 L59.2506303,230.396153" id="Path" stroke="#288ADB"></path>
            <path d="M118.408993,206.310591 L118.408993,283.077323" id="Path" stroke="#288ADB"></path>
            <path d="M85.1594022,225.502274 L151.610604,263.88564" id="Path" stroke="#288ADB"></path>
            <path d="M85.1594022,263.88564 L151.610604,225.502274" id="Path" stroke="#288ADB"></path>
        </g>
    </g>
</svg>