<?xml version="1.0" encoding="UTF-8"?>
<svg width="288px" height="288px" viewBox="0 0 288 288" version="1.1" xmlns="http://www.w3.org/2000/svg" xmlns:xlink="http://www.w3.org/1999/xlink">
    <!-- Generator: Sketch 57.1 (83088) - https://sketch.com -->
    <title>ICONS / Forecast / Color / 06 - Mostly Cloudy LK</title>
    <desc>Created with Sketch.</desc>
    <g id="ICONS-/-Forecast-/-Color-/-06---Mostly-Cloudy-LK" stroke="none" stroke-width="1" fill="none" fill-rule="evenodd">
        <g id="Mostly-Cloudy" transform="translate(12.000000, 49.000000)" stroke-width="9.77777778">
            <path d="M88,0 L88,34.2222222" id="Path" stroke="#FF8700"></path>
            <path d="M34.2222222,87.6577778 L0,87.6577778" id="Path" stroke="#FF8700"></path>
            <path d="M49.9155556,49.5733333 L25.7155556,25.3733333" id="Path" stroke="#FF8700"></path>
            <path d="M116.208889,60.4266667 C106.207476,50.1221187 91.3634299,46.1270986 77.5410489,50.0198813 C63.7186679,53.912664 53.1411562,65.0671309 49.9872719,79.0765915 C46.8333877,93.0860522 51.6104044,107.697212 62.4311111,117.137778" id="Path" stroke="#FF8700"></path>
            <path d="M264,134.102222 C264,119.191162 258.076604,104.89082 247.532892,94.3471076 C236.98918,83.8033957 222.688838,77.88 207.777778,77.88 L198.244444,77.88 C180.280766,56.730756 151.325374,48.5202744 124.934024,57.0923736 C98.5426735,65.6644728 79.9384523,89.3226565 77.8311111,116.991111 L66.0488889,116.991111 C45.7984484,116.991112 29.382223,133.407337 29.382223,153.657778 C29.382223,173.908218 45.7984484,190.324444 66.0488889,190.324444 L207.826667,190.324444 C238.858249,190.29746 264,165.133816 264,134.102222 Z" id="Path" stroke="#BABABA"></path>
        </g>
    </g>
</svg>