<?xml version="1.0" encoding="UTF-8"?>
<svg width="288px" height="288px" viewBox="0 0 288 288" version="1.1" xmlns="http://www.w3.org/2000/svg" xmlns:xlink="http://www.w3.org/1999/xlink">
    <!-- Generator: Sketch 57.1 (83088) - https://sketch.com -->
    <title>ICONS / Forecast / Color / 08 - Dreary LK</title>
    <desc>Created with Sketch.</desc>
    <g id="ICONS-/-Forecast-/-Color-/-08---Dreary-LK" stroke="none" stroke-width="1" fill="none" fill-rule="evenodd">
        <g id="Dreary-(Overcast)" transform="translate(12.000000, 59.000000)" stroke="#BABABA" stroke-width="9.96226415">
            <path d="M150.629434,127.950189 L157.403774,127.950189 C158.525941,112.021787 169.208845,98.3709111 184.400549,93.4530487 C199.592253,88.5351863 216.248306,93.3358878 226.492075,105.584906 L231.871698,105.584906 L234.113208,105.584906 C241.768884,87.9067645 240.025865,67.5643678 229.474391,51.4462893 C218.922917,35.3282109 200.976251,25.5933038 181.711698,25.5381132 L172.098113,25.5381132 C153.795497,3.98982688 124.293778,-4.3755695 97.4044773,4.35826745 C70.5151768,13.0921044 51.5599325,37.1966689 49.4128302,65.3871698 L37.4083019,65.3871698 C16.7757776,65.3871702 0.049812108,82.1131361 0.049812108,102.74566 C0.049812108,123.378185 16.7757776,140.104151 37.4083019,140.104151 L131.601509,140.104151 C135.045429,132.701199 142.464623,127.962237 150.629434,127.950189 Z" id="Path"></path>
            <path d="M264,137.763019 C263.972665,120.022303 249.61235,105.639725 231.871698,105.584906 L226.492075,105.584906 C216.241936,93.3314548 199.575074,88.5346799 184.37946,93.4647637 C169.183846,98.3948476 158.507709,112.062819 157.403774,128 L150.629434,128 C139.404108,128.546278 130.58341,137.806673 130.58341,149.045283 C130.58341,160.283893 139.404108,169.544288 150.629434,170.090566 L232.021132,170.090566 C249.738827,169.899455 264,155.481744 264,137.763019 L264,137.763019 Z" id="Path"></path>
        </g>
    </g>
</svg>